# xmcd
#
# Track frame offsets:
#	150
#	24784
#	48160
#	72514
#	96700
#	122685
#	148669
#	168146
#	190961
#	213774
#	238136
#	262498
#
# Disc length: 3826 seconds
#
# Revision: 0
# Processed by: cddbd v1.5.2PL0 Copyright (c) Steve Scherf et al.
# Submitted via: audiograbber 1.83.01
#
DISCID=b20ef00c
DTITLE=Various Artist - Funkymix 142
DYEAR=2011
DGENRE=Hip-Hop
TTITLE0=Rihann - Whats my Name 100 bpm
TTITLE1=T-Pain - Rap Song 88 bpm
TTITLE2=Ciara - Gimme dat 132 bpm
TTITLE3=Michael Jackson vs Akon - Hold my hand 90 bpm
TTITLE4=Shawn Chrystopher - Catch me if you can (clean) 85 bpm
TTITLE5=Shawn Chrystopher - Catch me if you can (dirty) 85 bpm
TTITLE6=Dr. Dre - Kush 95 bpm
TTITLE7=Souljia Boy - Speakers going hammer 82 bpm
TTITLE8=Keyshia Cole - I aint thru 96 bpm
TTITLE9=Diddy Dirty Money - Coming Home (clean) 84 bpm
TTITLE10=Diddy Dirty Money - Coming Home (dirty) 84 bpm
TTITLE11=Chris Brown - Yeah 3x 130 bpm
EXTD=
EXTT0=
EXTT1=
EXTT2=
EXTT3=
EXTT4=
EXTT5=
EXTT6=
EXTT7=
EXTT8=
EXTT9=
EXTT10=
EXTT11=
PLAYORDER=
